<svg xmlns="http://www.w3.org/2000/svg" xmlns:xlink="http://www.w3.org/1999/xlink" width="250" zoomAndPan="magnify" viewBox="0 0 187.5 187.499992" height="250" preserveAspectRatio="xMidYMid meet" version="1.0"><defs><g/><clipPath id="0422cf39f7"><path d="M 26.214844 8 L 85 8 L 85 134 L 26.214844 134 Z M 26.214844 8 " clip-rule="nonzero"/></clipPath></defs><g clip-path="url(#0422cf39f7)"><path fill="#6c5ce7" d="M 69.789062 67.1875 L 84.742188 75.835938 L 84.742188 16.558594 L 71.554688 8.9375 L 57.789062 16.871094 L 57.789062 32.847656 L 54.066406 35 L 54.066406 19.023438 L 41.925781 26.042969 L 41.925781 42.929688 L 55.964844 51.015625 L 69.75 43.046875 L 69.75 28.117188 L 73.472656 25.964844 L 73.472656 45.199219 L 57.789062 54.253906 L 57.789062 70.136719 L 54.066406 72.289062 L 54.066406 54.234375 L 40.355469 46.304688 L 26.238281 54.449219 L 26.238281 68.136719 L 41.925781 59.082031 L 41.925781 63.386719 L 26.238281 72.441406 L 26.238281 87.878906 L 40.355469 96.023438 L 52.007812 89.292969 L 40.957031 82.894531 L 40.957031 78.609375 L 73.472656 97.378906 L 73.472656 119.523438 L 69.75 117.371094 L 69.75 99.53125 L 55.730469 91.445312 L 41.925781 99.414062 L 41.925781 115.78125 L 54.066406 122.78125 L 54.066406 104.457031 L 57.789062 106.609375 L 57.789062 124.933594 L 71.882812 133.078125 L 84.742188 125.648438 L 84.742188 80.140625 L 69.789062 71.492188 Z M 69.789062 67.1875 " fill-opacity="1" fill-rule="evenodd"/></g><path fill="#00ffff" d="M 88.578125 21.175781 L 88.578125 125.242188 L 92.398438 127.472656 L 98.371094 130.90625 C 97.402344 134.277344 98.816406 138.019531 101.996094 139.84375 C 105.757812 142.015625 110.550781 140.734375 112.722656 136.972656 C 114.875 133.230469 113.59375 128.421875 109.851562 126.25 C 106.671875 124.429688 102.734375 125.070312 100.292969 127.589844 L 92.398438 123.03125 L 92.398438 18.964844 L 100.292969 14.40625 C 102.734375 16.949219 106.671875 17.585938 109.851562 15.746094 C 113.59375 13.574219 114.875 8.785156 112.722656 5.023438 C 110.550781 1.28125 105.757812 0 101.996094 2.152344 C 98.816406 3.996094 97.402344 7.71875 98.371094 11.089844 L 92.398438 14.542969 L 88.578125 16.753906 Z M 104.324219 135.8125 C 102.8125 134.917969 102.289062 132.980469 103.179688 131.46875 C 104.054688 129.953125 105.992188 129.429688 107.503906 130.304688 C 109.035156 131.175781 109.539062 133.117188 108.667969 134.648438 C 107.796875 136.160156 105.855469 136.683594 104.324219 135.8125 Z M 103.179688 10.546875 C 102.289062 9.015625 102.8125 7.078125 104.324219 6.203125 C 105.855469 5.332031 107.796875 5.855469 108.667969 7.367188 C 109.539062 8.878906 109.035156 10.820312 107.503906 11.691406 C 105.992188 12.585938 104.054688 12.0625 103.179688 10.546875 Z M 103.179688 10.546875 " fill-opacity="1" fill-rule="evenodd"/><path fill="#00ffff" d="M 105.992188 49.988281 L 96.53125 49.988281 L 96.53125 53.808594 L 107.582031 53.808594 L 111.421875 49.988281 L 116.113281 45.296875 L 136.648438 45.296875 L 145.394531 54.042969 C 143.589844 57.046875 143.976562 61.023438 146.578125 63.621094 C 149.640625 66.683594 154.625 66.683594 157.6875 63.621094 C 160.75 60.554688 160.75 55.59375 157.6875 52.527344 C 155.089844 49.929688 151.113281 49.523438 148.109375 51.328125 L 142.058594 45.296875 L 138.238281 41.457031 L 114.523438 41.457031 L 110.703125 45.296875 Z M 149.890625 55.824219 C 151.132812 54.585938 153.128906 54.585938 154.371094 55.824219 C 155.613281 57.066406 155.613281 59.082031 154.371094 60.304688 C 153.128906 61.546875 151.132812 61.546875 149.890625 60.304688 C 148.652344 59.082031 148.652344 57.066406 149.890625 55.824219 Z M 149.890625 55.824219 " fill-opacity="1" fill-rule="evenodd"/><path fill="#6c5ce7" d="M 96.53125 34.398438 L 101.609375 34.398438 L 105.429688 30.578125 L 109.949219 26.0625 L 116.054688 26.0625 C 116.929688 29.472656 120.011719 31.996094 123.675781 31.996094 C 128 31.996094 131.53125 28.484375 131.53125 24.140625 C 131.53125 19.816406 128 16.308594 123.675781 16.308594 C 120.011719 16.308594 116.929688 18.828125 116.054688 22.222656 L 108.359375 22.222656 L 104.519531 26.0625 L 100.019531 30.578125 L 96.53125 30.578125 Z M 120.496094 24.140625 C 120.496094 22.394531 121.929688 20.980469 123.675781 20.980469 C 125.421875 20.980469 126.855469 22.394531 126.855469 24.140625 C 126.855469 25.90625 125.421875 27.320312 123.675781 27.320312 C 121.929688 27.320312 120.496094 25.90625 120.496094 24.140625 Z M 120.496094 24.140625 " fill-opacity="1" fill-rule="evenodd"/><path fill="#00ffff" d="M 102.171875 88.1875 L 96.53125 88.1875 L 96.53125 92.027344 L 105.992188 92.027344 L 110.703125 96.71875 L 114.523438 100.539062 L 138.238281 100.539062 L 148.109375 90.667969 C 151.113281 92.472656 155.089844 92.085938 157.6875 89.488281 C 160.75 86.421875 160.75 81.460938 157.6875 78.394531 C 154.625 75.332031 149.640625 75.332031 146.578125 78.394531 C 143.976562 80.992188 143.589844 84.949219 145.394531 87.957031 L 136.648438 96.71875 L 116.113281 96.71875 L 107.582031 88.1875 Z M 154.371094 86.191406 C 153.128906 87.429688 151.132812 87.429688 149.890625 86.191406 C 148.652344 84.949219 148.652344 82.933594 149.890625 81.691406 C 151.132812 80.449219 153.128906 80.449219 154.371094 81.691406 C 155.613281 82.933594 155.613281 84.949219 154.371094 86.191406 Z M 154.371094 86.191406 " fill-opacity="1" fill-rule="evenodd"/><path fill="#6c5ce7" d="M 96.53125 72.925781 L 122.941406 72.925781 C 123.792969 76.320312 126.875 78.839844 130.539062 78.839844 C 134.882812 78.839844 138.394531 75.332031 138.394531 71.007812 C 138.394531 66.664062 134.882812 63.15625 130.539062 63.15625 C 126.875 63.15625 123.792969 65.675781 122.941406 69.089844 L 96.53125 69.089844 Z M 127.378906 71.007812 C 127.378906 69.242188 128.796875 67.828125 130.539062 67.828125 C 132.304688 67.828125 133.722656 69.242188 133.722656 71.007812 C 133.722656 72.753906 132.304688 74.167969 130.539062 74.167969 C 128.796875 74.167969 127.378906 72.753906 127.378906 71.007812 Z M 127.378906 71.007812 " fill-opacity="1" fill-rule="evenodd"/><path fill="#6c5ce7" d="M 105.429688 111.4375 L 101.609375 107.597656 L 96.53125 107.597656 L 96.53125 111.4375 L 100.019531 111.4375 L 104.519531 115.9375 L 108.359375 119.773438 L 116.054688 119.773438 C 116.929688 123.1875 120.011719 125.707031 123.675781 125.707031 C 128 125.707031 131.53125 122.199219 131.53125 117.855469 C 131.53125 113.53125 128 110.023438 123.675781 110.023438 C 120.011719 110.023438 116.929688 112.542969 116.054688 115.9375 L 109.949219 115.9375 Z M 123.675781 121.035156 C 121.929688 121.035156 120.496094 119.621094 120.496094 117.855469 C 120.496094 116.109375 121.929688 114.695312 123.675781 114.695312 C 125.421875 114.695312 126.855469 116.109375 126.855469 117.855469 C 126.855469 119.621094 125.421875 121.035156 123.675781 121.035156 Z M 123.675781 121.035156 " fill-opacity="1" fill-rule="evenodd"/><g fill="#00ffff" fill-opacity="1"><g transform="translate(2.618614, 180.846851)"><g><path d="M 12.765625 0 L 9.6875 0 L 9.6875 -24.234375 L 0.984375 -24.234375 L 0.984375 -26.875 L 21.6875 -26.875 L 21.6875 -24.234375 L 12.765625 -24.234375 Z M 12.765625 0 "/></g></g></g><g fill="#00ffff" fill-opacity="1"><g transform="translate(25.333875, 180.846851)"><g><path d="M 2.265625 -9.65625 C 2.265625 -11.75 2.625 -13.550781 3.34375 -15.0625 C 4.0625 -16.582031 5.082031 -17.75 6.40625 -18.5625 C 7.738281 -19.382812 9.300781 -19.796875 11.09375 -19.796875 C 12.8125 -19.796875 14.300781 -19.378906 15.5625 -18.546875 C 16.820312 -17.710938 17.789062 -16.519531 18.46875 -14.96875 C 19.15625 -13.414062 19.5 -11.582031 19.5 -9.46875 L 19.5 -9.15625 L 5.078125 -9.15625 C 5.203125 -7.007812 5.832031 -5.304688 6.96875 -4.046875 C 8.101562 -2.785156 9.566406 -2.15625 11.359375 -2.15625 C 12.972656 -2.15625 14.253906 -2.554688 15.203125 -3.359375 C 16.148438 -4.171875 16.695312 -5.3125 16.84375 -6.78125 L 19.5 -6.78125 C 19.25 -4.457031 18.421875 -2.664062 17.015625 -1.40625 C 15.617188 -0.144531 13.734375 0.484375 11.359375 0.484375 C 9.515625 0.484375 7.910156 0.078125 6.546875 -0.734375 C 5.179688 -1.554688 4.125 -2.726562 3.375 -4.25 C 2.632812 -5.78125 2.265625 -7.582031 2.265625 -9.65625 Z M 11.09375 -17.15625 C 9.476562 -17.195312 8.160156 -16.738281 7.140625 -15.78125 C 6.117188 -14.820312 5.539062 -13.5 5.40625 -11.8125 L 16.546875 -11.8125 C 16.441406 -13.40625 15.894531 -14.679688 14.90625 -15.640625 C 13.925781 -16.597656 12.65625 -17.101562 11.09375 -17.15625 Z M 11.09375 -17.15625 "/></g></g></g><g fill="#00ffff" fill-opacity="1"><g transform="translate(48.049136, 180.846851)"><g><path d="M 11.625 -2.15625 C 12.988281 -2.15625 14.164062 -2.570312 15.15625 -3.40625 C 16.15625 -4.238281 16.820312 -5.363281 17.15625 -6.78125 L 19.921875 -6.78125 C 19.484375 -4.550781 18.519531 -2.78125 17.03125 -1.46875 C 15.539062 -0.164062 13.738281 0.484375 11.625 0.484375 C 9.78125 0.484375 8.175781 0.078125 6.8125 -0.734375 C 5.445312 -1.554688 4.390625 -2.726562 3.640625 -4.25 C 2.898438 -5.78125 2.53125 -7.582031 2.53125 -9.65625 C 2.53125 -11.75 2.890625 -13.550781 3.609375 -15.0625 C 4.328125 -16.582031 5.347656 -17.75 6.671875 -18.5625 C 8.003906 -19.382812 9.578125 -19.796875 11.390625 -19.796875 C 13.640625 -19.796875 15.535156 -19.109375 17.078125 -17.734375 C 18.617188 -16.359375 19.566406 -14.5 19.921875 -12.15625 L 17.15625 -12.15625 C 16.894531 -13.695312 16.238281 -14.914062 15.1875 -15.8125 C 14.144531 -16.707031 12.878906 -17.15625 11.390625 -17.15625 C 9.503906 -17.15625 8.023438 -16.484375 6.953125 -15.140625 C 5.878906 -13.804688 5.351562 -11.976562 5.375 -9.65625 C 5.425781 -7.351562 6.015625 -5.523438 7.140625 -4.171875 C 8.265625 -2.828125 9.757812 -2.15625 11.625 -2.15625 Z M 11.625 -2.15625 "/></g></g></g><g fill="#00ffff" fill-opacity="1"><g transform="translate(70.764398, 180.846851)"><g><path d="M 6.734375 -18.9375 L 19.6875 -18.9375 L 19.71875 0 L 16.890625 0 L 16.84375 -16.28125 L 6.734375 -16.28125 L 6.734375 0 L 3.90625 0 L 3.90625 -24.875 L 1.78125 -24.875 L 1.78125 -27.53125 L 6.734375 -27.53125 Z M 6.734375 -18.9375 "/></g></g></g><g fill="#00ffff" fill-opacity="1"><g transform="translate(93.479659, 180.846851)"><g><path d="M 2.6875 0 L 2.6875 -26.875 L 19.984375 -26.875 L 20.03125 0 L 17.1875 0 L 17.15625 -24.234375 L 5.53125 -24.234375 L 5.53125 0 Z M 2.6875 0 "/></g></g></g><g fill="#00ffff" fill-opacity="1"><g transform="translate(116.19492, 180.846851)"><g><path d="M 2.5 -9.65625 C 2.5 -11.644531 2.882812 -13.394531 3.65625 -14.90625 C 4.425781 -16.425781 5.488281 -17.617188 6.84375 -18.484375 C 8.207031 -19.359375 9.773438 -19.796875 11.546875 -19.796875 C 13.285156 -19.796875 14.820312 -19.359375 16.15625 -18.484375 C 17.5 -17.617188 18.546875 -16.425781 19.296875 -14.90625 C 20.054688 -13.394531 20.4375 -11.644531 20.4375 -9.65625 C 20.4375 -7.6875 20.0625 -5.9375 19.3125 -4.40625 C 18.570312 -2.882812 17.546875 -1.6875 16.234375 -0.8125 C 14.921875 0.0507812 13.410156 0.484375 11.703125 0.484375 C 9.878906 0.484375 8.28125 0.0507812 6.90625 -0.8125 C 5.53125 -1.6875 4.453125 -2.882812 3.671875 -4.40625 C 2.890625 -5.9375 2.5 -7.6875 2.5 -9.65625 Z M 11.703125 -2.15625 C 12.859375 -2.15625 13.878906 -2.476562 14.765625 -3.125 C 15.648438 -3.769531 16.34375 -4.648438 16.84375 -5.765625 C 17.351562 -6.890625 17.609375 -8.1875 17.609375 -9.65625 C 17.609375 -11.113281 17.347656 -12.40625 16.828125 -13.53125 C 16.304688 -14.65625 15.59375 -15.539062 14.6875 -16.1875 C 13.78125 -16.832031 12.734375 -17.15625 11.546875 -17.15625 C 10.304688 -17.15625 9.210938 -16.832031 8.265625 -16.1875 C 7.328125 -15.539062 6.597656 -14.65625 6.078125 -13.53125 C 5.554688 -12.40625 5.3125 -11.113281 5.34375 -9.65625 C 5.363281 -8.1875 5.644531 -6.890625 6.1875 -5.765625 C 6.726562 -4.648438 7.476562 -3.769531 8.4375 -3.125 C 9.394531 -2.476562 10.484375 -2.15625 11.703125 -2.15625 Z M 11.703125 -2.15625 "/></g></g></g><g fill="#00ffff" fill-opacity="1"><g transform="translate(138.910181, 180.846851)"><g><path d="M 13.0625 0 L 9.6875 0 L 1.96875 -18.9375 L 5.109375 -18.9375 L 11.390625 -3.5625 L 17.640625 -18.9375 L 20.78125 -18.9375 Z M 13.0625 0 "/></g></g></g><g fill="#00ffff" fill-opacity="1"><g transform="translate(161.625442, 180.846851)"><g><path d="M 10.484375 -12.90625 C 11.671875 -12.90625 12.757812 -12.734375 13.75 -12.390625 C 14.75 -12.054688 15.441406 -11.625 15.828125 -11.09375 L 16.015625 -10.828125 L 16.015625 -16.28125 L 4.84375 -16.28125 L 4.84375 -18.9375 L 18.859375 -18.9375 L 18.859375 0 L 16.015625 0 L 16.015625 -1.78125 L 15.828125 -1.59375 C 15.222656 -0.988281 14.453125 -0.484375 13.515625 -0.078125 C 12.578125 0.328125 11.628906 0.53125 10.671875 0.53125 C 9.128906 0.53125 7.769531 0.238281 6.59375 -0.34375 C 5.425781 -0.925781 4.507812 -1.734375 3.84375 -2.765625 C 3.175781 -3.796875 2.84375 -4.984375 2.84375 -6.328125 C 2.84375 -7.609375 3.160156 -8.75 3.796875 -9.75 C 4.441406 -10.75 5.34375 -11.523438 6.5 -12.078125 C 7.664062 -12.628906 8.992188 -12.90625 10.484375 -12.90625 Z M 5.671875 -6.328125 C 5.671875 -5.085938 6.140625 -4.078125 7.078125 -3.296875 C 8.015625 -2.515625 9.210938 -2.125 10.671875 -2.125 C 12.242188 -2.125 13.523438 -2.515625 14.515625 -3.296875 C 15.515625 -4.078125 16.015625 -5.085938 16.015625 -6.328125 C 16.015625 -7.484375 15.503906 -8.425781 14.484375 -9.15625 C 13.460938 -9.894531 12.128906 -10.265625 10.484375 -10.265625 C 9.066406 -10.265625 7.910156 -9.894531 7.015625 -9.15625 C 6.117188 -8.425781 5.671875 -7.484375 5.671875 -6.328125 Z M 5.671875 -6.328125 "/></g></g></g></svg>